<svg width="181" height="47" viewBox="0 0 181 47" fill="none" xmlns="http://www.w3.org/2000/svg">
<path d="M32.8249 2.1427C39.8121 2.1427 45.4762 7.80683 45.4764 14.794L45.4765 33.7722C45.4763 40.7592 39.8122 46.4235 32.8252 46.4237L13.057 46.4232C6.06964 46.4232 0.404495 40.7592 0.404461 33.7719L0.40531 14.7947C0.40531 7.80739 6.06931 2.14223 13.0566 2.14223L32.8249 2.1427ZM12.3216 11.3116C11.022 11.3283 9.98178 12.3955 9.99845 13.6951C10.0153 14.9945 11.0825 16.0339 12.3819 16.0173L28.3669 15.8123C29.8677 15.7931 31.2229 17.0517 31.2451 18.7786C31.2672 20.5054 29.9446 21.7974 28.4439 21.8167L12.4589 22.0216C11.1594 22.0383 10.1192 23.1057 10.1358 24.4051C10.1524 25.7047 11.2197 26.7449 12.5193 26.7283L28.5043 26.5233C30.005 26.5041 31.3602 27.7628 31.3824 29.4896C31.4043 31.2163 30.0819 32.5085 28.5813 32.5277L12.5962 32.7327C11.2967 32.7493 10.2564 33.8166 10.2731 35.1162C10.2898 36.4157 11.357 37.456 12.6566 37.4393L28.6416 37.2344C32.8768 37.18 36.1425 33.6176 36.089 29.4293C36.0626 27.3694 35.237 25.4809 33.9014 24.1004C35.2011 22.6862 35.9781 20.7781 35.9517 18.7182C35.898 14.5298 32.542 11.0524 28.3066 11.1066L12.3216 11.3116Z" fill="white"/>
<path d="M168.937 36.7028C165.005 36.7533 162.086 35.9147 160.181 34.1872C158.303 32.4594 157.342 29.9133 157.299 26.5491C157.256 23.2126 158.165 20.6565 160.026 18.8807C161.886 17.0772 164.768 16.1503 168.673 16.1003C172.605 16.0499 175.524 16.9023 177.43 18.6576C179.363 20.3847 180.351 22.9165 180.394 26.253C180.437 29.6172 179.528 32.1872 177.668 33.963C175.807 35.7388 172.897 36.6521 168.937 36.7028ZM168.864 30.9892C170.138 30.9728 171.047 30.5997 171.591 29.8697C172.164 29.1393 172.439 27.9678 172.419 26.3552C172.398 24.7704 172.093 23.6203 171.502 22.9048C170.939 22.1612 170.02 21.7976 168.746 21.8139C167.5 21.8299 166.605 22.2168 166.061 22.9746C165.516 23.7046 165.254 24.862 165.274 26.4468C165.295 28.0594 165.587 29.2236 166.15 29.9394C166.713 30.6552 167.618 31.0052 168.864 30.9892Z" fill="white"/>
<path d="M141.74 37.0515C139.874 37.0755 138.241 36.79 136.841 36.195C135.468 35.5719 134.383 34.5551 133.585 33.1445C132.815 31.7336 132.415 29.8444 132.385 27.4769C132.353 25.0536 132.759 23.0287 133.602 21.4021C134.444 19.7755 135.584 18.5491 137.022 17.7228C138.459 16.8686 140.027 16.4306 141.726 16.4088C142.645 16.3971 143.551 16.4829 144.445 16.6665C145.366 16.8497 146.163 17.118 146.836 17.4716L146.72 8.40524L154.573 8.30456L154.934 36.4645L148.125 36.5518L147.729 35.0108C146.958 35.6335 146.087 36.1322 145.117 36.5068C144.174 36.8532 143.049 37.0348 141.74 37.0515ZM143.923 31.3405C145.12 31.3251 146.145 30.9081 146.998 30.0892L146.908 23.0701C146.119 22.3838 145.085 22.0488 143.804 22.0653C142.773 22.0785 141.944 22.5488 141.315 23.4761C140.686 24.4035 140.383 25.7168 140.405 27.4158C140.426 29.087 140.719 30.1698 141.282 30.664C141.845 31.1303 142.725 31.3559 143.923 31.3405Z" fill="white"/>
<path d="M108.413 37.1465L108.158 17.295L115.483 17.2011L115.71 18.7062C116.453 18.194 117.432 17.7346 118.648 17.3281C119.892 16.9212 121.221 16.7087 122.636 16.6905C125.105 16.6589 126.916 17.25 128.07 18.4639C129.223 19.6778 129.816 21.5691 129.849 24.1378L130.012 36.8696L122.188 36.9699L122.035 25.0339C122.024 24.1404 121.821 23.5007 121.428 23.1148C121.034 22.7289 120.352 22.5422 119.381 22.5546C118.798 22.5621 118.19 22.7095 117.555 22.9969C116.948 23.284 116.453 23.6254 116.07 24.0213L116.237 37.0462L108.413 37.1465Z" fill="white"/>
<path d="M90.9852 37.7023C89.7366 37.7183 88.5684 37.5108 87.4806 37.0798C86.4205 36.6485 85.5653 35.9642 84.915 35.0271C84.2647 34.0899 83.9303 32.8985 83.9118 31.4527C83.8851 29.3674 84.558 27.7459 85.9308 26.5882C87.3031 25.4026 89.3905 24.7919 92.1929 24.7559L97.3122 24.6903L97.3074 24.315C97.2974 23.5364 96.971 22.9706 96.3282 22.6173C95.6854 22.264 94.5593 22.0977 92.95 22.1183C90.6748 22.1475 88.4318 22.5239 86.2209 23.2474L86.1605 18.5347C87.1544 18.1326 88.3989 17.7969 89.894 17.5274C91.3888 17.2302 92.9131 17.0716 94.4669 17.0517C97.6023 17.0115 100.094 17.6191 101.941 18.8746C103.789 20.1301 104.731 22.1481 104.766 24.9284L104.923 37.1065L98.0969 37.194L97.702 35.614C97.0162 36.2345 96.1207 36.7327 95.0154 37.1084C93.9379 37.4837 92.5945 37.6817 90.9852 37.7023ZM93.5901 33.0805C94.478 33.0691 95.2252 32.9066 95.8317 32.5929C96.4659 32.2789 96.9883 31.8968 97.3988 31.4466L97.3673 28.986L93.5798 29.0345C91.8595 29.0566 91.0081 29.7488 91.0256 31.1112C91.0427 32.4458 91.8975 33.1022 93.5901 33.0805Z" fill="white"/>
<path d="M57.7371 37.7962L57.392 10.88L72.1727 10.6904C74.9006 10.6555 76.9826 11.2697 78.4187 12.5333C79.8547 13.7968 80.5881 15.6267 80.6188 18.023C80.6367 19.4161 80.3872 20.5898 79.8705 21.544C79.3816 22.4977 78.7232 23.2586 77.8953 23.8266C79.0423 24.2578 79.9553 24.901 80.6344 25.7562C81.3411 26.5832 81.7051 27.8326 81.7265 29.5044C81.759 32.04 81.0048 34.0144 79.4639 35.4275C77.9229 36.8407 75.7189 37.5657 72.8519 37.6024L57.7371 37.7962ZM65.0871 21.5245L70.181 21.4592C72.1017 21.4346 73.051 20.5585 73.0288 18.8309C73.0177 17.9671 72.7727 17.3154 72.2938 16.8756C71.8427 16.4355 71.0466 16.2228 69.9053 16.2374L65.0201 16.3001L65.0871 21.5245ZM65.2243 32.2241L70.6523 32.1545C71.71 32.141 72.4865 31.9081 72.9819 31.4558C73.4772 31.0036 73.7182 30.262 73.705 29.231C73.694 28.3673 73.435 27.7157 72.9283 27.2763C72.4215 26.8369 71.5836 26.6247 70.4145 26.6397L65.1536 26.7071L65.2243 32.2241Z" fill="white"/>
</svg>
